<?xml version="1.0" encoding="utf-8"?>
<!-- Generator: Adobe Illustrator 21.0.2, SVG Export Plug-In . SVG Version: 6.00 Build 0)  -->
<svg version="1.0" id="Capa_1" xmlns="http://www.w3.org/2000/svg" xmlns:xlink="http://www.w3.org/1999/xlink" x="0px" y="0px"
	 viewBox="0 0 290 127" style="enable-background:new 0 0 290 127;" xml:space="preserve">
<style type="text/css">
	.st0{fill:#DCE055;}
	.st1{fill:none;stroke:#000000;stroke-width:1.4822;stroke-miterlimit:10;}
</style>
<g>
	<g>
		<path class="st0" d="M87.9,70.5l4.2,1.3c-2.5,6.3-5.5,10.9-8.9,13.8c-3.4,2.9-6.9,4.4-10.4,4.4c-3,0-5.2-0.8-6.9-2.4
			c-1.7-1.6-2.5-3.8-2.5-6.5c0-2.4,0.8-6.3,2.3-11.6c2.3-8,3.6-12.9,4-14.7c0.4-1.9,0.6-3.3,0.6-4.5c0-1.3-0.3-2.3-0.9-3
			c-0.6-0.7-1.4-1.1-2.3-1.1c-1.7,0-3.5,0.7-5.4,2.1c-3.2,2.3-6.1,5.7-9,10.3c-2.8,4.6-4.9,9.3-6.3,14.2l-4.5,16.1L28,89.5
			l10.7-40.1c0.1-0.4,0.2-0.8,0.2-1.2c0-1-0.4-1.8-1.1-2.3C37,45.3,35.6,45,33.6,45h-2.7l0.7-4.8l22.4-1L50,56
			c7.6-11.6,15.1-17.4,22.4-17.4c3.3,0,6,1,8.1,3c2.1,2.1,3.1,4.6,3.1,7.7c0,2.5-0.5,5.5-1.4,9.1l-4.7,17.7
			c-0.9,2.8-1.3,4.6-1.3,5.3c0,0.5,0.2,0.9,0.4,1.2c0.3,0.3,0.7,0.4,1.2,0.4c1.1,0,2.4-0.7,3.7-2.1C83.7,78.6,85.8,75.1,87.9,70.5z"
			/>
	</g>
	<g>
		<path class="st1" d="M52.9,124L8.7,98.5c-2.8-1.6-5-5.5-5-8.7v-51"/>
		<path class="st1" d="M62.9,4.7L107,30.2c2.8,1.6,5,5.5,5,8.7v51"/>
	</g>
</g>
<g>
	<g>
		<path d="M129.4,43.5c0-0.2,0.2-0.5,0.5-0.5h1.1c0.2,0,0.4,0.2,0.3,0.5L129,59.4c0,0.2-0.2,0.5-0.5,0.5h-1.1
			c-0.2,0-0.4-0.2-0.3-0.5L129.4,43.5z"/>
		<path d="M138,43.2c0-0.2,0.3-0.4,0.5-0.4h0.6l7.7,13.5h0l1.8-12.8c0-0.2,0.3-0.5,0.6-0.5h0.8c0.3,0,0.4,0.2,0.4,0.5l-2.3,16.2
			c0,0.2-0.3,0.4-0.5,0.4H147l-7.8-13.7h0l-1.8,13c0,0.2-0.3,0.5-0.6,0.5h-0.8c-0.3,0-0.4-0.2-0.4-0.5L138,43.2z"/>
		<path d="M157.1,43.2c0-0.2,0.3-0.4,0.5-0.4h0.6l7.7,13.5h0l1.8-12.8c0-0.2,0.3-0.5,0.6-0.5h0.8c0.3,0,0.4,0.2,0.4,0.5l-2.3,16.2
			c0,0.2-0.3,0.4-0.5,0.4h-0.6l-7.8-13.7h0l-1.8,13c0,0.2-0.3,0.5-0.6,0.5h-0.8c-0.3,0-0.4-0.2-0.4-0.5L157.1,43.2z"/>
		<path d="M174,51.5c0.7-4.8,4.5-8.7,9-8.7c4.2,0,7.4,3.9,6.7,8.7c-0.7,4.8-4.4,8.6-9,8.6C176.5,60.1,173.3,56.3,174,51.5z
			 M188,51.5c0.6-3.8-1.8-7-5.2-7c-3.4,0-6.6,3.2-7.1,7c-0.5,3.8,1.8,7,5.2,7S187.5,55.3,188,51.5z"/>
		<path d="M194.1,43.7c-0.1-0.3,0.1-0.6,0.5-0.6h1c0.2,0,0.3,0.1,0.3,0.3l3.3,13.4h0.1l7.1-13.4c0-0.1,0.2-0.3,0.4-0.3h1.2
			c0.3,0,0.4,0.3,0.3,0.6l-8.9,16.2c-0.1,0.1-0.2,0.3-0.4,0.3h-0.2c-0.1,0-0.3-0.1-0.3-0.3L194.1,43.7z"/>
		<path d="M207.8,59.3l8.9-16.2c0.1-0.1,0.2-0.3,0.4-0.3h0.2c0.2,0,0.3,0.1,0.3,0.3l4.3,16.2c0.1,0.3-0.1,0.6-0.5,0.6h-1
			c-0.2,0-0.3-0.1-0.4-0.3l-1-4h-7.5l-2,4c-0.1,0.1-0.2,0.3-0.5,0.3h-1C207.8,59.9,207.6,59.6,207.8,59.3z M218.7,54.2l-1.9-7.9
			h-0.1l-4.1,7.9H218.7z"/>
		<path d="M235.4,42.8c2.2,0,3.6,0.8,4.9,2.2c0.2,0.2,0.1,0.5-0.1,0.7l-0.7,0.6c-0.2,0.2-0.4,0.1-0.6-0.1c-0.8-0.9-2.4-1.6-3.8-1.6
			c-3.7,0-6.9,3.7-6.9,7.9c0,3.2,2,5.9,5,5.9c1.8,0,3-0.9,4.2-1.9c0.2-0.2,0.4-0.2,0.5-0.1l0.7,0.7c0.2,0.2,0.1,0.5-0.1,0.6
			c-1.7,1.6-3.7,2.3-5.6,2.3c-3.6,0-6.7-3.3-6.7-7.5C226.3,47.2,230.2,42.8,235.4,42.8z"/>
		<path d="M246.1,43.5c0-0.2,0.2-0.5,0.5-0.5h1.1c0.2,0,0.4,0.2,0.3,0.5l-2.2,15.9c0,0.2-0.2,0.5-0.5,0.5h-1.1
			c-0.2,0-0.4-0.2-0.3-0.5L246.1,43.5z"/>
		<path d="M252.4,51.5c0.7-4.8,4.5-8.7,9-8.7c4.2,0,7.4,3.9,6.7,8.7c-0.7,4.8-4.4,8.6-9,8.6C254.9,60.1,251.8,56.3,252.4,51.5z
			 M266.4,51.5c0.6-3.8-1.8-7-5.2-7c-3.4,0-6.6,3.2-7.1,7c-0.5,3.8,1.8,7,5.2,7S265.9,55.3,266.4,51.5z M259.9,40.9l-0.2-0.4
			c-0.1-0.2,0-0.4,0.2-0.5l3.6-2c0.1-0.1,0.5-0.1,0.6,0.2l0.3,0.8c0.1,0.3,0,0.4-0.2,0.5l-3.8,1.6C260.1,41.3,259.9,41.2,259.9,40.9
			z"/>
		<path d="M274.9,43.2c0-0.2,0.3-0.4,0.5-0.4h0.6l7.7,13.5h0l1.8-12.8c0-0.2,0.3-0.5,0.6-0.5h0.8c0.3,0,0.4,0.2,0.4,0.5L285,59.7
			c0,0.2-0.3,0.4-0.5,0.4h-0.6l-7.8-13.7h0l-1.8,13c0,0.2-0.3,0.5-0.6,0.5H273c-0.3,0-0.4-0.2-0.4-0.5L274.9,43.2z"/>
	</g>
	<g>
		<path d="M127.4,68.3c0-0.2,0.2-0.4,0.4-0.4h4.6c2.4,0,4.4,2,4.4,4.4c0,2.4-2,4.4-4.4,4.4H130v4.6c0,0.2-0.2,0.4-0.4,0.4h-1.8
			c-0.2,0-0.4-0.2-0.4-0.4V68.3z M132.3,74.3c1.1,0,2-0.9,2-2c0-1.1-0.9-1.9-2-1.9H130v4H132.3z"/>
		<path d="M138.1,81.2l6.1-13.2c0.1-0.1,0.2-0.2,0.3-0.2h0.2c0.2,0,0.3,0.1,0.3,0.2l6.1,13.2c0.1,0.3,0,0.5-0.3,0.5h-1.7
			c-0.3,0-0.4-0.1-0.6-0.4l-1-2.1h-5.9l-1,2.1c-0.1,0.2-0.3,0.4-0.6,0.4h-1.7C138.1,81.7,138,81.4,138.1,81.2z M146.6,77l-2-4.3
			h-0.1l-1.9,4.3H146.6z"/>
		<path d="M154.5,68.3c0-0.2,0.2-0.4,0.4-0.4h5.6c2.4,0,4.3,1.9,4.3,4.2c0,1.8-1.2,3.3-2.9,4l2.7,5c0.1,0.3,0,0.6-0.3,0.6h-2.1
			c-0.2,0-0.3-0.1-0.3-0.2l-2.6-5.2h-2.2v5c0,0.2-0.2,0.4-0.4,0.4h-1.8c-0.2,0-0.4-0.2-0.4-0.4V68.3z M160.3,74.2c1,0,1.9-0.9,1.9-2
			c0-1-0.9-1.9-1.9-1.9h-3.2v3.9H160.3z"/>
		<path d="M167.4,81.2l6.1-13.2c0.1-0.1,0.2-0.2,0.3-0.2h0.2c0.2,0,0.3,0.1,0.3,0.2l6.1,13.2c0.1,0.3,0,0.5-0.3,0.5h-1.7
			c-0.3,0-0.4-0.1-0.6-0.4l-1-2.1H171l-1,2.1c-0.1,0.2-0.3,0.4-0.6,0.4h-1.7C167.5,81.7,167.3,81.4,167.4,81.2z M175.9,77l-2-4.3
			h-0.1L172,77H175.9z"/>
		<path d="M191.6,70.3h-3c-0.2,0-0.4-0.2-0.4-0.4v-1.6c0-0.2,0.2-0.4,0.4-0.4h8.6c0.2,0,0.4,0.2,0.4,0.4v1.6c0,0.2-0.2,0.4-0.4,0.4
			h-3v11c0,0.2-0.2,0.4-0.4,0.4H192c-0.2,0-0.4-0.2-0.4-0.4V70.3z"/>
		<path d="M207.1,67.7c3.9,0,7.1,3.2,7.1,7.1c0,3.9-3.1,7.1-7.1,7.1c-3.9,0-7.1-3.1-7.1-7.1C200.1,70.9,203.2,67.7,207.1,67.7z
			 M207.1,79.3c2.5,0,4.5-2,4.5-4.5s-2-4.5-4.5-4.5c-2.5,0-4.5,2.1-4.5,4.5S204.7,79.3,207.1,79.3z"/>
		<path d="M218.4,68.3c0-0.2,0.2-0.4,0.4-0.4h4.7c3.8,0,6.9,3.1,6.9,6.9c0,3.8-3.1,6.9-6.9,6.9h-4.7c-0.2,0-0.4-0.2-0.4-0.4V68.3z
			 M223.2,79.3c2.6,0,4.4-1.9,4.4-4.5c0-2.6-1.9-4.5-4.4-4.5h-2.2v9H223.2z"/>
		<path d="M240.6,67.7c3.9,0,7.1,3.2,7.1,7.1c0,3.9-3.1,7.1-7.1,7.1c-3.9,0-7.1-3.1-7.1-7.1C233.5,70.9,236.6,67.7,240.6,67.7z
			 M240.6,79.3c2.5,0,4.5-2,4.5-4.5s-2-4.5-4.5-4.5c-2.5,0-4.5,2.1-4.5,4.5S238.1,79.3,240.6,79.3z"/>
		<path d="M251,79.8l0.7-1.2c0.2-0.3,0.5-0.3,0.7-0.1c0.1,0.1,1.7,1.2,3,1.2c1,0,1.8-0.7,1.8-1.5c0-1-0.8-1.7-2.5-2.4
			c-1.9-0.7-3.7-1.9-3.7-4.3c0-1.8,1.3-3.8,4.4-3.8c2,0,3.5,1,3.9,1.3c0.2,0.1,0.3,0.5,0.1,0.6l-0.7,1.1c-0.2,0.2-0.5,0.4-0.7,0.2
			c-0.2-0.1-1.7-1.1-2.7-1.1c-1.1,0-1.7,0.7-1.7,1.4c0,0.9,0.7,1.6,2.3,2.2c1.9,0.8,4.1,1.9,4.1,4.4c0,2-1.8,3.9-4.5,3.9
			c-2.5,0-3.9-1.2-4.3-1.5C250.9,80.2,250.8,80.1,251,79.8z"/>
	</g>
</g>
</svg>
