<?xml version="1.0" encoding="utf-8"?>
<!-- Generator: Adobe Illustrator 21.0.2, SVG Export Plug-In . SVG Version: 6.00 Build 0)  -->
<svg version="1.0" id="Capa_1" xmlns="http://www.w3.org/2000/svg" xmlns:xlink="http://www.w3.org/1999/xlink" x="0px" y="0px"
	 viewBox="0 0 300 77" style="enable-background:new 0 0 300 77;" xml:space="preserve">
<style type="text/css">
	.st0{fill:#444242;}
	.st1{font-family:'SourceSansPro-Light';}
	.st2{font-size:25.7259px;}
</style>
<g id="g5179_2_" transform="matrix(1.2228178,0,0,1.2228178,-5.93003,-234.71661)">
	<path id="path4437-9-4-5-79-6-5-7_2_" inkscape:connector-curvature="0" sodipodi:nodetypes="ccccccccc" class="st0" d="M207,194
		v28.6h1.7v-23.4l19,23.4V194H226v23.4L207,194z"/>
	<path id="path4427-1-6-6-06-7-4-2_2_" inkscape:connector-curvature="0" sodipodi:nodetypes="ccccccc" class="st0" d="M39.7,194.1
		v28.6h10.2v-1.8h-8.3v-26.8H39.7z"/>
	
		<path id="path4433-9-1-3-2-29-5-9-5_2_" inkscape:connector-curvature="0" sodipodi:nodetypes="cccssccccccccssssccccsccssccccccccsscsccccccccc" class="st0" d="
		M239.2,194L239.2,194c-1.6,0-3.1,0.5-4.2,1.4c-1.2,1-1.7,2.4-1.7,4.1v0.3c0,1.1,0.3,2.2,1,3.2c0.6,0.9,1.5,1.7,2.4,2.4
		c0.9,0.6,2,1.2,3.1,1.9c1.1,0.7,2.1,1.4,3,2h0h0c0.9,0.6,1.6,1.4,2.2,2.3h0c0.6,0.9,0.9,1.9,0.9,3.1v0.2c0,1.8-0.6,3.2-1.8,4.3
		c-1.3,1.1-2.7,1.6-4.4,1.6c-1.7,0-3.2-0.4-4.3-1.2c-1.1-0.8-2.6-2.4-3.3-5l0,4l0.1,0.1c1.7,2.5,4.2,3.9,7.3,3.9
		c2.3,0,4.3-0.7,5.9-2.1h0c1.6-1.4,2.5-3.3,2.5-5.7v-0.4c0-1.2-0.3-2.3-0.8-3.3c-0.5-1-1.1-1.8-1.9-2.5c-0.7-0.7-1.6-1.3-2.5-1.9h0
		c-0.9-0.6-1.8-1.2-2.7-1.7l0,0c-0.9-0.5-1.7-1-2.4-1.6h0c-1.6-1.2-2.4-2.5-2.4-3.8v-0.2c0-1.2,0.4-2.1,1.1-2.7c0.8-0.7,1.7-1,2.8-1
		c1.1,0,2.1,0.3,3,0.8h0h0c0.9,0.5,2,1.6,2.8,3.5l0-1.5v-2l-0.1-0.1C243.4,194.9,241.5,194,239.2,194L239.2,194z"/>
	<path id="path4431-2-8-2-8-6-2-2-0_2_" inkscape:connector-curvature="0" class="st0" d="M20.9,194c-3.9,0-7.4,1.4-10.2,4.2
		c-2.8,2.8-4.2,6.1-4.2,10c0,3.8,1.4,7.2,4.2,10.1c2.8,2.9,6.1,4.3,9.9,4.3h0.5c3.8,0,7.2-1.4,10-4.3h0c2.8-2.9,4.2-6.2,4.2-10.1
		c0-0.4,0-0.7,0-1h-0.4h-1.5H22v1.8h11.2c-0.2,3.1-1.4,5.8-3.6,8.1c-2.5,2.5-5.4,3.7-8.8,3.7c-3.4,0-6.3-1.2-8.8-3.7
		c-2.5-2.5-3.7-5.4-3.7-8.8c0-3.5,1.2-6.4,3.7-8.8c2.5-2.5,5.4-3.7,8.8-3.7l0,0c3.5,0,6.3,1.2,8.8,3.7h0h0c0.1,0.1,0.2,0.2,0.3,0.3
		l1.4-1.2c-0.1-0.1-0.2-0.2-0.3-0.4C28.2,195.5,24.8,194,20.9,194L20.9,194z"/>
	
		<path id="path4429-9-56-7-9-5-7-0-3-9-8-6-4_2_" inkscape:connector-curvature="0" sodipodi:nodetypes="scsccssccscss" class="st0" d="
		M112.6,206.6c-0.5,0-0.9,0.2-1.2,0.5c-0.3,0.3-0.5,0.7-0.5,1.2c0,0.5,0.2,0.9,0.5,1.2h0c0.3,0.3,0.7,0.5,1.2,0.5h0.1
		c0.5,0,0.9-0.2,1.2-0.5h0c0.3-0.3,0.5-0.8,0.5-1.2c0-0.5-0.2-0.9-0.5-1.2C113.5,206.8,113.1,206.6,112.6,206.6L112.6,206.6z"/>
	<path id="path4431-2-8-2-8-6-3-8-0_2_" inkscape:connector-curvature="0" class="st0" d="M112.6,194.1c-3.9,0-7.4,1.4-10.2,4.2
		c-2.8,2.8-4.2,6.1-4.2,10c0,3.8,1.4,7.2,4.2,10.1c2.8,2.9,6.1,4.3,9.9,4.3h0.5c3.8,0,7.2-1.4,10-4.3h0c2.8-2.9,4.2-6.2,4.2-10.1
		c0-3.9-1.4-7.2-4.2-10C120,195.5,116.6,194.1,112.6,194.1L112.6,194.1z M112.6,195.8L112.6,195.8c3.5,0,6.3,1.2,8.8,3.7h0h0
		c2.4,2.4,3.7,5.4,3.7,8.8c0,3.4-1.2,6.3-3.7,8.8c-2.4,2.5-5.3,3.7-8.8,3.7s-6.3-1.2-8.8-3.7c-2.5-2.5-3.7-5.4-3.7-8.8
		c0-3.5,1.2-6.4,3.7-8.8C106.3,197.1,109.2,195.8,112.6,195.8L112.6,195.8z"/>
	<path id="path4425-3-7-4-5-2-5-5-6_2_" inkscape:connector-curvature="0" class="st0" d="M155.1,222.6L141.2,194l-13.9,28.6h2
		l11.8-24.3l11.9,24.3H155.1z"/>
	
		<path id="path4429-9-56-7-9-5-7-0-3-9-8-6-2-27_2_" inkscape:connector-curvature="0" sodipodi:nodetypes="scsccssccscss" class="st0" d="
		M141.2,206.6c-0.5,0-0.9,0.2-1.2,0.5c-0.3,0.3-0.5,0.7-0.5,1.2c0,0.5,0.2,0.9,0.5,1.2h0c0.3,0.3,0.7,0.5,1.2,0.5h0.1
		c0.5,0,0.9-0.2,1.2-0.5h0c0.3-0.3,0.5-0.8,0.5-1.2c0-0.5-0.2-0.9-0.5-1.2C142.1,206.8,141.7,206.6,141.2,206.6L141.2,206.6z"/>
	<path id="path4431-2-8-2-8-6-1-8_2_" inkscape:connector-curvature="0" class="st0" d="M64.9,194.1c-3.9,0-7.4,1.4-10.2,4.2
		c-2.8,2.8-4.2,6.1-4.2,10c0,3.8,1.4,7.2,4.2,10.1c2.8,2.9,6.1,4.3,9.9,4.3h0.5c3.8,0,7.2-1.4,10-4.3h0c2.8-2.9,4.2-6.2,4.2-10.1
		c0-3.9-1.4-7.2-4.2-10C72.3,195.5,68.9,194.1,64.9,194.1L64.9,194.1z M64.9,195.8L64.9,195.8c3.5,0,6.3,1.2,8.8,3.7h0h0
		c2.4,2.4,3.7,5.4,3.7,8.8c0,3.4-1.2,6.3-3.7,8.8c-2.4,2.5-5.3,3.7-8.8,3.7c-3.4,0-6.3-1.2-8.8-3.7c-2.5-2.5-3.7-5.4-3.7-8.8
		c0-3.5,1.2-6.4,3.7-8.8C58.6,197.1,61.5,195.8,64.9,195.8L64.9,195.8z"/>
	
		<path id="path4429-9-56-7-9-5-7-0-3-9-8-4-9-5_2_" inkscape:connector-curvature="0" sodipodi:nodetypes="scsccssccscss" class="st0" d="
		M64.9,206.6c-0.5,0-0.9,0.2-1.2,0.5c-0.3,0.3-0.5,0.7-0.5,1.2c0,0.5,0.2,0.9,0.5,1.2h0c0.3,0.3,0.7,0.5,1.2,0.5h0.1
		c0.5,0,0.9-0.2,1.2-0.5h0c0.3-0.3,0.5-0.8,0.5-1.2c0-0.5-0.2-0.9-0.5-1.2C65.8,206.8,65.4,206.6,64.9,206.6L64.9,206.6z"/>
	<path id="path4423-4-9-5-3-3-1-1-9_2_" inkscape:connector-curvature="0" class="st0" d="M83.5,194.1v0.4v28.2H85
		c2.7,0,5-0.9,6.8-2.7h0c1.9-1.8,2.8-4,2.8-6.4c0-2.4-0.7-4.5-2-6.1c-1.1-1.4-2.6-2.3-4.2-2.9c0.6-0.4,1.2-0.9,1.6-1.6
		c0.6-1,1-2.1,1-3.1c0-1.6-0.6-3-1.8-4.1h0c-1.2-1.1-2.6-1.6-4.3-1.6L83.5,194.1L83.5,194.1z M85.4,195.9c1,0,1.9,0.4,2.6,1.1
		c0.8,0.8,1.1,1.7,1.1,2.8c0,1.1-0.4,2-1.2,2.9c-0.8,0.8-1.6,1.2-2.6,1.2V195.9z M85.4,205.6c2,0,3.7,0.7,5.2,2.2h0
		c1.5,1.5,2.2,3.2,2.2,5.3c0,2.1-0.7,3.8-2.2,5.4h0c-1.4,1.5-3.1,2.2-5.1,2.2L85.4,205.6L85.4,205.6z"/>
	<path id="path4425-3-7-4-5-2-4-5_2_" inkscape:connector-curvature="0" class="st0" d="M151.9,194l13.9,28.6l13.9-28.6h-2
		l-11.8,24.3L154,194H151.9z"/>
	<path id="path4425-3-7-4-5-2-5-3-6-2_2_" inkscape:connector-curvature="0" class="st0" d="M204.4,222.6L190.5,194l-13.9,28.6h2
		l11.8-24.4l11.9,24.4H204.4z"/>
	
		<path id="path4429-9-56-7-9-5-7-0-3-9-8-6-2-2-0_2_" inkscape:connector-curvature="0" sodipodi:nodetypes="scsccssccscss" class="st0" d="
		M190.5,206.6c-0.5,0-0.9,0.2-1.2,0.5c-0.3,0.3-0.5,0.7-0.5,1.2c0,0.5,0.2,0.9,0.5,1.2h0c0.3,0.3,0.7,0.5,1.2,0.5h0.1
		c0.5,0,0.9-0.2,1.2-0.5h0c0.3-0.3,0.5-0.8,0.5-1.2c0-0.5-0.2-0.9-0.5-1.2C191.4,206.8,191,206.6,190.5,206.6L190.5,206.6z"/>
</g>
<text transform="matrix(1 0 0 1 147.9482 68.6162)" class="st0 st1 st2">Agencia Digital</text>
</svg>
